<?xml version="1.0" encoding="utf-8"?>
<!-- Generator: Adobe Illustrator 17.0.0, SVG Export Plug-In . SVG Version: 6.00 Build 0)  -->
<!DOCTYPE svg PUBLIC "-//W3C//DTD SVG 1.1//EN" "http://www.w3.org/Graphics/SVG/1.1/DTD/svg11.dtd">
<svg version="1.1" id="Layer_1" xmlns="http://www.w3.org/2000/svg" xmlns:xlink="http://www.w3.org/1999/xlink" x="0px" y="0px"
	 width="256px" height="256px" viewBox="0 0 256 256" enable-background="new 0 0 256 256" xml:space="preserve">
<g>
	<path fill="#454545" d="M128,22c58.449,0,106,47.551,106,106s-47.551,106-106,106S22,186.449,22,128S69.551,22,128,22 M128,4
		C59.517,4,4,59.517,4,128s55.517,124,124,124s124-55.517,124-124S196.483,4,128,4L128,4z"/>
</g>
<circle fill="#454545" cx="129" cy="94" r="24"/>
<path fill="#454545" d="M69.667,173.333"/>
<path fill="#454545" d="M170.588,199.167c-4.576-42.488-21.307-74-41.255-74c-18.242,0-33.799,26.344-39.827,63.34
	c-0.564,3.461-1.035,7.025-1.427,10.66H170.588z"/>
</svg>
