<?xml version="1.0" encoding="utf-8"?>
<!-- Generator: Adobe Illustrator 17.0.0, SVG Export Plug-In . SVG Version: 6.00 Build 0)  -->
<!DOCTYPE svg PUBLIC "-//W3C//DTD SVG 1.1//EN" "http://www.w3.org/Graphics/SVG/1.1/DTD/svg11.dtd">
<svg version="1.1" id="Layer_1" xmlns="http://www.w3.org/2000/svg" xmlns:xlink="http://www.w3.org/1999/xlink" x="0px" y="0px"
	 width="256px" height="256px" viewBox="0 0 256 256" enable-background="new 0 0 256 256" xml:space="preserve">
<g>
	<path fill="#454545" d="M128,22c58.449,0,106,47.551,106,106s-47.551,106-106,106S22,186.449,22,128S69.551,22,128,22 M128,4
		C59.517,4,4,59.517,4,128s55.517,124,124,124s124-55.517,124-124S196.483,4,128,4L128,4z"/>
</g>
<polygon fill="#454545" points="201.168,128.458 165.103,92.394 173.436,84.062 217.813,128.439 217.752,128.5 217.772,128.519 
	173.394,172.897 165.062,164.564 "/>
<polygon fill="#454545" points="54.708,125.125 90.772,89.061 82.439,80.728 38.062,125.106 38.123,125.167 38.103,125.186 
	82.481,169.563 90.813,161.231 "/>
<rect x="120.691" y="71.399" transform="matrix(0.9305 0.3664 -0.3664 0.9305 55.9705 -37.7326)" fill="#454545" width="13.415" height="114.399"/>
</svg>
