<?xml version="1.0" encoding="utf-8"?>
<!-- Generator: Adobe Illustrator 17.0.0, SVG Export Plug-In . SVG Version: 6.00 Build 0)  -->
<!DOCTYPE svg PUBLIC "-//W3C//DTD SVG 1.1//EN" "http://www.w3.org/Graphics/SVG/1.1/DTD/svg11.dtd">
<svg version="1.1" xmlns="http://www.w3.org/2000/svg" xmlns:xlink="http://www.w3.org/1999/xlink" x="0px" y="0px" width="200px"
	 height="200px" viewBox="0 0 200 200" enable-background="new 0 0 200 200" xml:space="preserve">
<g id="Layer_2" display="none">
	<rect display="inline" width="200" height="200"/>
</g>
<g id="Layer_1">
	<g>
		<path fill="#FFFFFF" d="M100,199.5c-54.864,0-99.5-44.636-99.5-99.5S45.136,0.5,100,0.5s99.5,44.636,99.5,99.5
			S154.864,199.5,100,199.5z M42.576,134.428c-3.212,0-5.826,2.613-5.826,5.826v1.997c0,3.213,2.614,5.826,5.826,5.826h115.848
			c3.213,0,5.826-2.613,5.826-5.826v-1.997c0-3.213-2.613-5.826-5.826-5.826H42.576z M42.576,93.175
			c-3.212,0-5.826,2.614-5.826,5.827v1.997c0,3.212,2.614,5.827,5.826,5.827h115.848c3.213,0,5.826-2.614,5.826-5.827v-1.997
			c0-3.213-2.613-5.827-5.826-5.827H42.576z M42.576,52.715c-3.212,0-5.826,2.614-5.826,5.827v1.997
			c0,3.213,2.614,5.827,5.826,5.827h115.848c3.213,0,5.826-2.614,5.826-5.827v-1.997c0-3.213-2.613-5.827-5.826-5.827H42.576z"/>
		<path fill="#FFFFFF" d="M100,1c54.589,0,99,44.411,99,99s-44.411,99-99,99S1,154.589,1,100S45.411,1,100,1 M42.576,66.866h115.847
			c3.488,0,6.326-2.838,6.326-6.326v-1.997c0-3.488-2.838-6.326-6.326-6.326H42.576c-3.488,0-6.326,2.838-6.326,6.326v1.997
			C36.25,64.028,39.088,66.866,42.576,66.866 M42.576,107.325h115.847c3.488,0,6.326-2.838,6.326-6.326v-1.997
			c0-3.488-2.838-6.326-6.326-6.326H42.576c-3.488,0-6.326,2.838-6.326,6.326v1.997C36.25,104.487,39.088,107.325,42.576,107.325
			 M42.576,148.577h115.847c3.488,0,6.326-2.838,6.326-6.326v-1.997c0-3.488-2.838-6.326-6.326-6.326H42.576
			c-3.488,0-6.326,2.838-6.326,6.326v1.997C36.25,145.739,39.088,148.577,42.576,148.577 M100,0C44.772,0,0,44.771,0,100
			c0,55.228,44.772,100,100,100s100-44.772,100-100C200,44.771,155.228,0,100,0L100,0z M42.576,65.866
			c-2.942,0-5.326-2.385-5.326-5.326v-1.997c0-2.942,2.385-5.326,5.326-5.326h115.847c2.942,0,5.326,2.385,5.326,5.326v1.997
			c0,2.942-2.385,5.326-5.326,5.326H42.576L42.576,65.866z M42.576,106.325c-2.942,0-5.326-2.385-5.326-5.326v-1.997
			c0-2.942,2.385-5.326,5.326-5.326h115.847c2.942,0,5.326,2.385,5.326,5.326v1.997c0,2.942-2.385,5.326-5.326,5.326H42.576
			L42.576,106.325z M42.576,147.577c-2.942,0-5.326-2.385-5.326-5.326v-1.997c0-2.942,2.385-5.326,5.326-5.326h115.847
			c2.942,0,5.326,2.385,5.326,5.326v1.997c0,2.942-2.385,5.326-5.326,5.326H42.576L42.576,147.577z"/>
	</g>
</g>
</svg>
