<?xml version="1.0" encoding="utf-8"?>
<!-- Generator: Adobe Illustrator 17.0.0, SVG Export Plug-In . SVG Version: 6.00 Build 0)  -->
<!DOCTYPE svg PUBLIC "-//W3C//DTD SVG 1.1//EN" "http://www.w3.org/Graphics/SVG/1.1/DTD/svg11.dtd">
<svg version="1.1" xmlns="http://www.w3.org/2000/svg" xmlns:xlink="http://www.w3.org/1999/xlink" x="0px" y="0px" width="200px"
	 height="200px" viewBox="0 0 200 200" enable-background="new 0 0 200 200" xml:space="preserve">
<g id="Layer_2" display="none">
	<rect display="inline" stroke="#FFFFFF" stroke-miterlimit="10" width="200" height="200"/>
</g>
<g id="XMLID_1_">
	<g>
		<path fill="#FFFFFF" d="M100,199.5c-54.864,0-99.5-44.636-99.5-99.5S45.136,0.5,100,0.5s99.5,44.636,99.5,99.5
			S154.864,199.5,100,199.5z M125.2,92.431c6.91,0,10.414,4.887,10.414,14.524v38.911h22.544v-41.604
			c0-18.951-9.459-30.265-25.304-30.265c-10.326,0-17.739,5.407-21.417,10.679l-0.953-9.12H90.801l0.024,0.523
			c0.28,6.017,0.566,13.347,0.566,22.088v47.699h22.544v-40.471c0-2.074,0.31-4.061,0.808-5.183
			C115.406,98.36,118.078,92.431,125.2,92.431z M52.556,145.866H75.1V75.556H52.556V145.866z M63.828,45.366
			c-3.542,0-6.676,1.211-8.827,3.411c-2.013,2.06-3.083,4.906-3.013,8.014c-0.071,2.979,1.001,5.772,3.02,7.839
			c2.155,2.207,5.236,3.422,8.677,3.422c7.024,0,12.123-4.741,12.123-11.272C75.656,50.055,70.729,45.366,63.828,45.366z"/>
		<path fill="#FFFFFF" d="M100,1c54.589,0,99,44.411,99,99s-44.411,99-99,99S1,154.589,1,100S45.411,1,100,1 M63.686,68.552
			c7.314,0,12.623-4.951,12.622-11.795c-0.159-7.001-5.291-11.891-12.48-11.891c-3.678,0-6.939,1.265-9.184,3.561
			c-2.108,2.157-3.229,5.131-3.155,8.329c-0.075,3.139,1.048,6.059,3.162,8.224C56.901,67.283,60.109,68.552,63.686,68.552
			 M111.801,83.348l-0.773-7.396l-0.094-0.896h-0.901H91.325h-1.048l0.049,1.047c0.28,6.012,0.566,13.334,0.566,22.065v47.199v1h1
			h21.544h1v-1v-39.971c0-2.009,0.293-3.917,0.765-4.98l0.015-0.034l0.013-0.035c0.622-1.74,3.178-7.416,9.972-7.416
			c6.578,0,9.914,4.719,9.914,14.024v38.411v1h1h21.544h1v-1v-41.105c0-19.264-9.646-30.765-25.804-30.765
			C123.016,73.497,115.768,78.322,111.801,83.348 M52.056,146.366h1H74.6h1v-1V76.056v-1h-1H53.056h-1v1v69.311V146.366 M100,0
			C44.772,0,0,44.771,0,100c0,55.228,44.772,100,100,100s100-44.772,100-100C200,44.771,155.228,0,100,0L100,0z M63.686,67.552
			c-6.803,0-11.339-4.819-11.197-10.772c-0.142-6.236,4.394-10.914,11.339-10.914c6.945,0,11.339,4.677,11.48,10.914
			C75.309,62.732,70.773,67.552,63.686,67.552L63.686,67.552z M111.026,85.552h0.425c2.835-4.394,9.922-11.056,21.403-11.056
			c14.174,0,24.804,9.355,24.804,29.765v41.105h-21.544v-38.411c0-8.93-3.118-15.024-10.914-15.024
			c-5.953,0-9.496,4.11-10.914,8.079c-0.566,1.276-0.851,3.402-0.851,5.386v39.971H91.892V98.167c0-8.646-0.283-16.016-0.567-22.111
			h18.709L111.026,85.552L111.026,85.552z M53.056,145.366V76.056H74.6v69.311H53.056L53.056,145.366z"/>
	</g>
</g>
</svg>
