<?xml version="1.0" encoding="utf-8"?>
<!-- Generator: Adobe Illustrator 17.0.0, SVG Export Plug-In . SVG Version: 6.00 Build 0)  -->
<!DOCTYPE svg PUBLIC "-//W3C//DTD SVG 1.1//EN" "http://www.w3.org/Graphics/SVG/1.1/DTD/svg11.dtd">
<svg version="1.1" xmlns="http://www.w3.org/2000/svg" xmlns:xlink="http://www.w3.org/1999/xlink" x="0px" y="0px" width="128px"
	 height="128px" viewBox="0 0 128 128" enable-background="new 0 0 128 128" xml:space="preserve">
<g id="Guides" display="none">
	<g id="Bg" display="inline">
		<rect fill="#FFFFFF" width="128" height="128"/>
	</g>
</g>
<g id="Layer_2">
	<circle id="Outer_Ring" fill="none" stroke="#000000" stroke-miterlimit="10" cx="64" cy="64" r="61.167"/>
	<text transform="matrix(1 0 0 1 63.9897 97.824)" font-family="'Lato-Regular'" font-size="48.1298">T</text>
	<g>
		<g>
			<path d="M26.609,98.563C8.156,78.617,8.618,47.375,27.996,27.996C37.613,18.379,50.4,13.083,64,13.083
				c12.932,0,25.128,4.789,34.563,13.525L65.36,59.811L52.816,28.44h-7.23L30.833,65.335h6.397c0.844,0,1.618-0.27,2.235-0.778
				c0.525-0.431,0.911-0.954,1.144-1.554l2.582-6.667h12.02l2.581,6.665c0.258,0.646,0.644,1.172,1.155,1.587
				c0.247,0.2,0.599,0.422,1.064,0.571L26.609,98.563z"/>
			<path d="M64,15.083c11.724,0,22.818,4.096,31.648,11.612L66.091,56.252L55.177,28.955l-1.006-2.515h-2.708H46.94h-2.708
				l-1.006,2.515L30.073,61.85l-2.193,5.485h5.907h3.443c1.315,0,2.528-0.427,3.502-1.23c0.796-0.653,1.381-1.452,1.743-2.381
				l2.086-5.387h9.279l2.102,5.429c0.244,0.611,0.576,1.161,0.99,1.644L26.695,95.648C19.179,86.818,15.083,75.724,15.083,64
				c0-13.066,5.088-25.35,14.327-34.589C38.65,20.172,50.934,15.083,64,15.083 M64,11.083c-13.543,0-27.085,5.166-37.418,15.499
				c-20.665,20.665-20.665,54.17,0,74.835l74.835-74.835C91.085,16.25,77.543,11.083,64,11.083L64,11.083z M33.787,63.335
				L46.94,30.441h4.522l13.153,32.894h-3.444c-0.398,0-0.719-0.099-0.964-0.298c-0.245-0.199-0.428-0.452-0.551-0.758l-3.076-7.943
				h-14.76l-3.076,7.943c-0.107,0.275-0.291,0.52-0.551,0.734c-0.26,0.214-0.582,0.322-0.964,0.322H33.787L33.787,63.335z"/>
		</g>
		<g>
			<polygon points="45.979,49.123 49.205,40.776 52.426,49.123 			"/>
			<path d="M49.203,46.327l0.307,0.796h-0.615L49.203,46.327 M49.19,34.641c-0.168,0.628-0.333,1.205-0.493,1.733
				c-0.161,0.528-0.318,0.991-0.471,1.389l-5.165,13.36h12.281L50.177,37.74C49.84,36.914,49.511,35.881,49.19,34.641L49.19,34.641z
				"/>
		</g>
	</g>
	<text transform="matrix(1 0 0 1 26.1617 63.21)" display="none" fill="#FFFFFF" font-family="'Lato-Regular'" font-size="57.2937">A</text>
	<g id="Inner_Ring">
		<path d="M64,15.083c26.973,0,48.917,21.944,48.917,48.917S90.973,112.917,64,112.917S15.083,90.973,15.083,64
			S37.027,15.083,64,15.083 M64,11.083c-29.225,0-52.917,23.692-52.917,52.917S34.775,116.917,64,116.917S116.917,93.225,116.917,64
			S93.225,11.083,64,11.083L64,11.083z"/>
	</g>
</g>
</svg>
