<?xml version="1.0" encoding="utf-8"?>
<!-- Generator: Adobe Illustrator 17.0.0, SVG Export Plug-In . SVG Version: 6.00 Build 0)  -->
<!DOCTYPE svg PUBLIC "-//W3C//DTD SVG 1.1//EN" "http://www.w3.org/Graphics/SVG/1.1/DTD/svg11.dtd">
<svg version="1.1" id="Layer_1" xmlns="http://www.w3.org/2000/svg" xmlns:xlink="http://www.w3.org/1999/xlink" x="0px" y="0px"
	 width="96px" height="96px" viewBox="0 0 96 96" enable-background="new 0 0 96 96" xml:space="preserve">
<g display="none">
	
		<image display="inline" overflow="visible" width="345" height="312" xlink:href="27A6CE3D.jpg"  transform="matrix(0.3387 0 0 -0.3379 -14.4168 96)">
	</image>
</g>
<path d="M27.709,70.656c0,0-0.04-0.262-0.08-0.74c-0.265-3.159-0.536-15.763,10.723-24.551c-2.002,2.951-3.583,4.426-3.583,8.852
	c2.845-5.374,11.275-12.75,14.858-12.856c-4.847,2.951-6.217,6.323-6.217,6.323s9.695-8.114,11.907-6.323
	c3.267,1.054,17.282,12.118,13.804,26.344c0,0,6.006-14.278,2.213-22.814c-4.004-7.798-7.956-5.822,6.349,1.923
	c-4.004-3.688-15.995-12.355-9.672-22.366c-6.323,10.011-11.697,5.48-11.697,5.48L45.25,20.761c0,0,8.009,8.641,6.006,9.378
	c-2.002,0.738-20.627-6.481-20.627-6.481s21.777,14.068-8.782,8.693c0,0,14.562,3.424,5.592,7.889c0,0-3.972,1.832-4.525,10.327
	c1.185-4.86,2.128-6.639,4.11-7.785c0,0-2.371,1.791-2.318,10.379"/>
<g>
	<path d="M62.736,53.024c-3.712,0.025-7.289,1.185-10.933,1.649c-1.521,0.194-3.088,0.241-4.611,0.061
		c-2.025-0.239-3.986-0.875-6.01-1.16c-1.809-0.255-3.64-0.521-5.46-0.531c-3.181-0.019-6.257,0.977-9.376,1.515
		c0,0.912-0.185,2.083,0.281,2.724c0.481,0.661,1.292,1.266,1.502,2.162c0.499,2.125,1.207,4.208,2.113,6.206
		c0.44,0.971,1.271,1.647,2.199,2.113c2.234,1.122,4.878,1.287,7.329,0.934c3.49-0.503,5.384-3.122,6.829-6.114
		c0.541-1.216,0.601-2.62,1.313-3.732c0.423-0.66,1.405-0.382,2.107-0.385c0.702-0.002,1.297,1.165,1.515,1.942
		c0.771,2.75,2.057,5.668,4.611,7.11c3.815,2.152,9.826,1.75,12.301-2.132c0.969-1.519,1.236-3.362,1.722-5.082
		c0.296-1.047,0.56-2.295,1.612-2.871c0.425-0.232,0.127-1.159,0.189-1.698c0.068-0.587,0.2-1.106-0.635-1.222
		c-1.457-0.201-2.87-0.813-4.361-1.02C65.562,53.299,64.178,53.015,62.736,53.024L62.736,53.024z M38.195,54.002
		c1.054-0.007,2.103,0.07,3.127,0.287c6.102,1.291,6.226,3.805,3.714,9.003c-2.047,4.236-6.288,5.297-10.56,4.282
		c-1.97-0.468-3.317-1.843-3.952-3.726c-0.67-1.987-1.178-4.099-1.063-6.187c0.154-2.797,3.317-3.19,5.583-3.445
		C36.083,54.099,37.141,54.008,38.195,54.002L38.195,54.002z M60.477,54.002c1.054,0.007,2.112,0.097,3.152,0.214
		c2.265,0.255,5.429,0.648,5.583,3.445c0.115,2.089-0.392,4.2-1.063,6.187c-0.635,1.883-1.982,3.258-3.952,3.726
		c-4.273,1.015-8.513-0.046-10.56-4.282c-2.512-5.198-2.389-7.712,3.714-9.003C58.374,54.072,59.423,53.995,60.477,54.002
		L60.477,54.002z"/>
</g>
</svg>
