<?xml version="1.0" encoding="utf-8"?>
<!-- Generator: Adobe Illustrator 17.0.0, SVG Export Plug-In . SVG Version: 6.00 Build 0)  -->
<!DOCTYPE svg PUBLIC "-//W3C//DTD SVG 1.1//EN" "http://www.w3.org/Graphics/SVG/1.1/DTD/svg11.dtd">
<svg version="1.1" id="Layer_1" xmlns="http://www.w3.org/2000/svg" xmlns:xlink="http://www.w3.org/1999/xlink" x="0px" y="0px"
	 width="256px" height="256px" viewBox="0 0 256 256" enable-background="new 0 0 256 256" xml:space="preserve">
<g>
	<path fill="#454545" d="M128,22c58.449,0,106,47.551,106,106s-47.551,106-106,106S22,186.449,22,128S69.551,22,128,22 M128,4
		C59.517,4,4,59.517,4,128s55.517,124,124,124s124-55.517,124-124S196.483,4,128,4L128,4z"/>
</g>
<g>
	<path fill="#454545" d="M179,86v65.5H77V86H179 M179,74H77c-6.627,0-12,5.373-12,12v65.5c0,6.627,5.373,12,12,12h102
		c6.627,0,12-5.373,12-12V86C191,79.373,185.627,74,179,74L179,74z"/>
</g>
<rect x="109.5" y="164.75" fill="#454545" width="37.5" height="13.458"/>
<rect x="89.375" y="177.875" fill="#454545" width="77.75" height="4.333"/>
<rect x="73.167" y="140.5" fill="#454545" width="109.333" height="14.667"/>
<circle fill="#FFFFFF" cx="127.75" cy="152.083" r="6.75"/>
</svg>
